<svg width="25" height="26" viewBox="0 0 25 26" fill="none" xmlns="http://www.w3.org/2000/svg">
<path d="M9.375 19C9.92728 19 10.375 18.5523 10.375 18C10.375 17.4477 9.92728 17 9.375 17V19ZM3.125 18V17C2.57272 17 2.125 17.4477 2.125 18H3.125ZM2.125 25C2.125 25.5523 2.57272 26 3.125 26C3.67728 26 4.125 25.5523 4.125 25H2.125ZM9.375 17H3.125V19H9.375V17ZM2.125 18V25H4.125V18H2.125Z" fill="#FFDDAF"/>
<path d="M22.9167 17C22.1424 18.9416 20.846 20.6242 19.1749 21.8566C17.5037 23.0889 15.5249 23.8216 13.4632 23.9714C11.4016 24.1211 9.3398 23.6818 7.51226 22.7036C5.68472 21.7253 4.16471 20.2472 3.125 18.4373" stroke="#FFDDAF" stroke-width="2" stroke-linecap="round" stroke-linejoin="round"/>
<path d="M15.625 7C15.0727 7 14.625 7.44772 14.625 8C14.625 8.55228 15.0727 9 15.625 9V7ZM21.875 8V9C22.4273 9 22.875 8.55228 22.875 8H21.875ZM22.875 1C22.875 0.447715 22.4273 0 21.875 0C21.3227 0 20.875 0.447715 20.875 1H22.875ZM15.625 9H21.875V7H15.625V9ZM22.875 8V1H20.875V8H22.875Z" fill="#FFDDAF"/>
<path d="M2.08325 9C2.85754 7.05838 4.15393 5.37577 5.82506 4.14341C7.49619 2.91105 9.47504 2.17837 11.5367 2.02865C13.5984 1.87893 15.6601 2.31817 17.4877 3.29644C19.3152 4.27472 20.8352 5.7528 21.8749 7.56268" stroke="#FFDDAF" stroke-width="2" stroke-linecap="round" stroke-linejoin="round"/>
</svg>
