<svg width="24" height="24" viewBox="0 0 24 24" fill="none" xmlns="http://www.w3.org/2000/svg">
<path d="M12 21C16.4183 21 20 17.4183 20 13C20 8.58172 16.4183 5 12 5C7.58172 5 4 8.58172 4 13C4 17.4183 7.58172 21 12 21Z" stroke="white" stroke-width="2" stroke-miterlimit="10" stroke-linecap="round" stroke-linejoin="round"/>
<path d="M9 12C8.44772 12 8 12.4477 8 13C8 13.5523 8.44772 14 9 14V12ZM15 13L15.7071 13.7071C16.0976 13.3166 16.0976 12.6834 15.7071 12.2929L15 13ZM12.7071 9.29289C12.3166 8.90237 11.6834 8.90237 11.2929 9.29289C10.9024 9.68342 10.9024 10.3166 11.2929 10.7071L12.7071 9.29289ZM11.2929 15.2929C10.9024 15.6834 10.9024 16.3166 11.2929 16.7071C11.6834 17.0976 12.3166 17.0976 12.7071 16.7071L11.2929 15.2929ZM9 14H15V12H9V14ZM15.7071 12.2929L12.7071 9.29289L11.2929 10.7071L14.2929 13.7071L15.7071 12.2929ZM14.2929 12.2929L11.2929 15.2929L12.7071 16.7071L15.7071 13.7071L14.2929 12.2929Z" fill="white"/>
<path d="M21 6L19 4" stroke="white" stroke-width="2" stroke-linecap="round" stroke-linejoin="round"/>
<path d="M10 2L14 2" stroke="white" stroke-width="2" stroke-linecap="round" stroke-linejoin="round"/>
</svg>
