<svg width="24" height="24" viewBox="0 0 24 24" fill="none" xmlns="http://www.w3.org/2000/svg">
<path d="M12 22C16.9706 22 21 17.9706 21 13C21 8.02944 16.9706 4 12 4C7.02944 4 3 8.02944 3 13C3 17.9706 7.02944 22 12 22Z" stroke="#FFDDAF" stroke-width="2" stroke-miterlimit="10" stroke-linecap="round" stroke-linejoin="round"/>
<path d="M11 16C11 16.5523 11.4477 17 12 17C12.5523 17 13 16.5523 13 16H11ZM13 10C13 9.44772 12.5523 9 12 9C11.4477 9 11 9.44772 11 10H13ZM13 16V10H11V16H13Z" fill="#FFDDAF"/>
<path d="M9 12C8.44772 12 8 12.4477 8 13C8 13.5523 8.44772 14 9 14V12ZM15 14C15.5523 14 16 13.5523 16 13C16 12.4477 15.5523 12 15 12V14ZM9 14H15V12H9V14Z" fill="#FFDDAF"/>
<path d="M22 5L20 3" stroke="#FFDDAF" stroke-width="2" stroke-linecap="round" stroke-linejoin="round"/>
<path d="M10 1H14" stroke="#FFDDAF" stroke-width="2" stroke-linecap="round" stroke-linejoin="round"/>
</svg>
