<svg width="25" height="24" viewBox="0 0 25 24" fill="none" xmlns="http://www.w3.org/2000/svg">
<path d="M6.1665 20C6.1665 20.5523 6.61422 21 7.1665 21C7.71879 21 8.1665 20.5523 8.1665 20H6.1665ZM16.1665 20C16.1665 20.5523 16.6142 21 17.1665 21C17.7188 21 18.1665 20.5523 18.1665 20H16.1665ZM8.1665 20C8.1665 19.6608 8.40086 19.1829 9.14547 18.7362C9.87016 18.3014 10.9359 18 12.1665 18V16C10.6357 16 9.20142 16.3702 8.11647 17.0212C7.05143 17.6602 6.1665 18.6823 6.1665 20H8.1665ZM12.1665 18C13.3971 18 14.4628 18.3014 15.1875 18.7362C15.9321 19.1829 16.1665 19.6608 16.1665 20H18.1665C18.1665 18.6823 17.2816 17.6602 16.2165 17.0212C15.1316 16.3702 13.6973 16 12.1665 16V18Z" fill="#D3C4B4"/>
<path d="M18.4201 13.2822C17.8859 13.1421 17.3392 13.4617 17.1992 13.9959C17.0591 14.5302 17.3787 15.0768 17.9129 15.2168L18.4201 13.2822ZM20.1665 16.9999C20.1665 17.5522 20.6142 17.9999 21.1665 17.9999C21.7188 17.9999 22.1665 17.5522 22.1665 16.9999H20.1665ZM17.9129 15.2168C18.6804 15.418 19.2759 15.7351 19.6601 16.0805C20.0415 16.4235 20.1665 16.7434 20.1665 16.9999H22.1665C22.1665 16.0262 21.6745 15.2023 20.9974 14.5934C20.323 13.987 19.4185 13.5439 18.4201 13.2822L17.9129 15.2168Z" fill="#D3C4B4"/>
<path d="M6.42009 15.2168C6.95432 15.0768 7.27387 14.5302 7.13382 13.9959C6.99377 13.4617 6.44715 13.1421 5.91292 13.2822L6.42009 15.2168ZM2.1665 16.9999C2.1665 17.5522 2.61422 17.9999 3.1665 17.9999C3.71879 17.9999 4.1665 17.5522 4.1665 16.9999H2.1665ZM5.91292 13.2822C4.91449 13.5439 4.01 13.987 3.33562 14.5934C2.65852 15.2023 2.1665 16.0262 2.1665 16.9999H4.1665C4.1665 16.7434 4.29153 16.4235 4.67296 16.0805C5.0571 15.7351 5.65261 15.418 6.42009 15.2168L5.91292 13.2822Z" fill="#D3C4B4"/>
<path d="M14.1665 11C14.1665 12.1046 13.2711 13 12.1665 13V15C14.3756 15 16.1665 13.2091 16.1665 11H14.1665ZM12.1665 13C11.0619 13 10.1665 12.1046 10.1665 11H8.1665C8.1665 13.2091 9.95736 15 12.1665 15V13ZM10.1665 11C10.1665 9.89543 11.0619 9 12.1665 9V7C9.95736 7 8.1665 8.79086 8.1665 11H10.1665ZM12.1665 9C13.2711 9 14.1665 9.89543 14.1665 11H16.1665C16.1665 8.79086 14.3756 7 12.1665 7V9Z" fill="#D3C4B4"/>
<path d="M17.4996 9.49097C17.0881 9.8593 17.053 10.4915 17.4214 10.903C17.7897 11.3145 18.4219 11.3496 18.8334 10.9812L17.4996 9.49097ZM13.4996 5.01876C13.0881 5.38708 13.053 6.01928 13.4214 6.43081C13.7897 6.84233 14.4219 6.87735 14.8334 6.50903L13.4996 5.01876ZM16.1665 6C17.2711 6 18.1665 6.89543 18.1665 8H20.1665C20.1665 5.79086 18.3756 4 16.1665 4V6ZM18.1665 8C18.1665 8.59224 17.9104 9.12333 17.4996 9.49097L18.8334 10.9812C19.6502 10.2502 20.1665 9.18476 20.1665 8H18.1665ZM14.8334 6.50903C15.1879 6.19174 15.6536 6 16.1665 6V4C15.1427 4 14.2066 4.38597 13.4996 5.01876L14.8334 6.50903Z" fill="#D3C4B4"/>
<path d="M5.49959 10.9812C5.91112 11.3496 6.54331 11.3145 6.91164 10.903C7.27997 10.4915 7.24494 9.8593 6.83342 9.49097L5.49959 10.9812ZM9.49959 6.50903C9.91112 6.87735 10.5433 6.84233 10.9116 6.43081C11.28 6.01928 11.2449 5.38708 10.8334 5.01876L9.49959 6.50903ZM8.1665 4C5.95736 4 4.1665 5.79086 4.1665 8H6.1665C6.1665 6.89543 7.06193 6 8.1665 6V4ZM4.1665 8C4.1665 9.18476 4.68286 10.2502 5.49959 10.9812L6.83342 9.49097C6.42265 9.12333 6.1665 8.59224 6.1665 8H4.1665ZM10.8334 5.01876C10.1264 4.38597 9.19034 4 8.1665 4V6C8.67938 6 9.14509 6.19174 9.49959 6.50903L10.8334 5.01876Z" fill="#D3C4B4"/>
</svg>
