<svg width="25" height="24" viewBox="0 0 25 24" fill="none" xmlns="http://www.w3.org/2000/svg">
<path d="M4.5 20H20.5" stroke="#D3C4B4" stroke-width="2" stroke-linecap="round" stroke-linejoin="round"/>
<path d="M8.5 20V21C8.76522 21 9.01957 20.8946 9.20711 20.7071L8.5 20ZM4.5 20H3.5C3.5 20.5523 3.94772 21 4.5 21V20ZM4.5 16L3.79289 15.2929C3.60536 15.4804 3.5 15.7348 3.5 16H4.5ZM15.7929 4.70711L16.5 5.41422L16.5 5.41421L15.7929 4.70711ZM17.2071 4.70711L16.5 5.41421L16.5 5.41422L17.2071 4.70711ZM19.7929 7.2929L20.5 6.58579L20.5 6.58579L19.7929 7.2929ZM19.7929 8.70711L19.0858 8L19.7929 8.70711ZM8.5 19H4.5V21H8.5V19ZM5.5 20V16H3.5V20H5.5ZM5.20711 16.7071L16.5 5.41422L15.0858 4L3.79289 15.2929L5.20711 16.7071ZM16.5 5.41422L19.0858 8L20.5 6.58579L17.9142 4L16.5 5.41422ZM19.0858 8L7.79289 19.2929L9.20711 20.7071L20.5 9.41421L19.0858 8ZM19.0858 8L19.0858 8L20.5 9.41421C21.281 8.63317 21.2811 7.36684 20.5 6.58579L19.0858 8ZM16.5 5.41421H16.5L17.9142 4C17.1332 3.21895 15.8668 3.21895 15.0858 4L16.5 5.41421Z" fill="#D3C4B4"/>
<path d="M12.5 8L16.5 12" stroke="#D3C4B4" stroke-width="2" stroke-linecap="round" stroke-linejoin="round"/>
</svg>
