<svg width="25" height="24" viewBox="0 0 25 24" fill="none" xmlns="http://www.w3.org/2000/svg">
<path d="M12.8334 21C17.2517 21 20.8334 17.4183 20.8334 13C20.8334 8.58172 17.2517 5 12.8334 5C8.4151 5 4.83337 8.58172 4.83337 13C4.83337 17.4183 8.4151 21 12.8334 21Z" stroke="#D3C4B4" stroke-width="2" stroke-miterlimit="10" stroke-linecap="round" stroke-linejoin="round"/>
<path d="M11.8334 13C11.8334 13.5523 12.2811 14 12.8334 14C13.3857 14 13.8334 13.5523 13.8334 13H11.8334ZM13.8334 9C13.8334 8.44772 13.3857 8 12.8334 8C12.2811 8 11.8334 8.44772 11.8334 9H13.8334ZM13.8334 13V9H11.8334V13H13.8334Z" fill="#D3C4B4"/>
<path d="M21.8334 6L19.8334 4" stroke="#D3C4B4" stroke-width="2" stroke-linecap="round" stroke-linejoin="round"/>
<path d="M10.8334 2L14.8334 2" stroke="#D3C4B4" stroke-width="2" stroke-linecap="round" stroke-linejoin="round"/>
</svg>
