<svg width="36" height="37" viewBox="0 0 36 37" fill="none" xmlns="http://www.w3.org/2000/svg">
<path fill-rule="evenodd" clip-rule="evenodd" d="M18 3.23077C9.72 3.23077 3 9.95077 3 18.2308C3 26.5108 9.72 33.2308 18 33.2308C26.28 33.2308 33 26.5108 33 18.2308C33 9.95077 26.28 3.23077 18 3.23077ZM27.54 25.4758C25.395 22.8658 20.19 21.9808 18 21.9808C15.81 21.9808 10.605 22.8658 8.46 25.4758C6.93 23.4658 6 20.9608 6 18.2308C6 11.6158 11.385 6.23077 18 6.23077C24.615 6.23077 30 11.6158 30 18.2308C30 20.9608 29.07 23.4658 27.54 25.4758ZM12.75 14.4808C12.75 11.5708 15.09 9.23077 18 9.23077C20.91 9.23077 23.25 11.5708 23.25 14.4808C23.25 17.3908 20.91 19.7308 18 19.7308C15.09 19.7308 12.75 17.3908 12.75 14.4808Z" fill="black"/>
</svg>
