<svg width="512" height="512" viewBox="0 0 512 512" fill="none" xmlns="http://www.w3.org/2000/svg">
<rect width="512" height="512" rx="70" fill="#34302A"/>
<path d="M412 169.305C412 207.599 380.966 238.634 342.671 238.634C304.387 238.634 273.353 207.599 273.353 169.305C273.353 131.021 304.387 99.9867 342.671 99.9867C380.966 99.9867 412 131.021 412 169.305Z" fill="#FADEBC"/>
<path d="M318.757 237.646L275.206 194.076C267.372 186.231 255.118 186.695 247.827 195.093L155.611 301.567C143.336 315.745 140.899 335.34 148.452 349.196L99.0002 398.657L113.188 412.845L162.297 363.736C176.203 372.195 196.644 369.869 211.255 357.211L317.74 265.005C326.138 257.725 326.611 245.47 318.757 237.646Z" fill="#FADEBC"/>
<path d="M362.331 241.58L362.331 241.58C368.643 247.892 378.88 247.892 385.192 241.58L397.447 229.326C403.759 223.013 403.759 212.777 397.447 206.465C397.447 206.465 397.447 206.464 397.447 206.464L305.543 114.55L305.542 114.55C299.23 108.238 288.993 108.238 282.681 114.55C282.681 114.55 282.681 114.55 282.681 114.55L270.427 126.805L270.427 126.805C264.114 133.117 264.114 143.353 270.426 149.665C270.426 149.666 270.426 149.666 270.427 149.666L362.331 241.58Z" fill="#FADEBC" stroke="#34302A" stroke-width="15"/>
</svg>
