<svg width="512" height="512" viewBox="0 0 512 512" fill="none" xmlns="http://www.w3.org/2000/svg">
<rect width="512" height="512" rx="256" fill="#34302A"/>
<path d="M386 183.777C386 215.71 360.122 241.588 328.189 241.588C296.266 241.588 270.387 215.71 270.387 183.777C270.387 151.853 296.266 125.975 328.189 125.975C360.122 125.975 386 151.853 386 183.777Z" fill="#FADEBC"/>
<path d="M308.248 240.765L271.933 204.432C265.4 197.891 255.181 198.278 249.102 205.28L172.206 294.066C161.971 305.889 159.939 322.228 166.236 333.782L125 375.026L136.831 386.857L177.781 345.907C189.377 352.96 206.422 351.02 218.606 340.466L307.4 263.578C314.403 257.507 314.797 247.289 308.248 240.765Z" fill="#FADEBC"/>
<path d="M352.57 235.379L352.57 235.38C357.148 239.958 364.574 239.958 369.152 235.38L379.371 225.161C383.95 220.582 383.95 213.157 379.371 208.578L302.735 131.934L302.735 131.934C298.157 127.355 290.731 127.355 286.153 131.934L275.934 142.153L279.078 145.296L275.934 142.153C271.355 146.731 271.355 154.156 275.934 158.735C275.934 158.735 275.934 158.735 275.934 158.735L352.57 235.379Z" fill="#FADEBC" stroke="#34302A" stroke-width="9"/>
</svg>
